<svg width="502" height="118" viewBox="0 0 502 118" fill="none" xmlns="http://www.w3.org/2000/svg">
<path d="M14.3763 4.2H33.2563C37.9923 4.2 42.1949 5.13866 45.8643 7.016C49.5336 8.89333 52.3709 11.5387 54.3763 14.952C56.4243 18.3227 57.4483 22.2053 57.4483 26.6C57.4483 30.9947 56.4243 34.8987 54.3763 38.312C52.3709 41.6827 49.5336 44.3067 45.8643 46.184C42.1949 48.0613 37.9923 49 33.2563 49H14.3763V4.2ZM32.8723 43.432C36.4989 43.432 39.6776 42.728 42.4083 41.32C45.1816 39.912 47.3149 37.9493 48.8083 35.432C50.3016 32.872 51.0483 29.928 51.0483 26.6C51.0483 23.272 50.3016 20.3493 48.8083 17.832C47.3149 15.272 45.1816 13.288 42.4083 11.88C39.6776 10.472 36.4989 9.768 32.8723 9.768H20.7763V43.432H32.8723ZM78.7073 14.76C83.4006 14.76 86.9846 15.912 89.4593 18.216C91.9766 20.52 93.2353 23.9547 93.2353 28.52V49H87.4113V44.52C86.3873 46.0987 84.9153 47.3147 82.9953 48.168C81.1179 48.9787 78.8779 49.384 76.2753 49.384C72.4779 49.384 69.4273 48.4667 67.1233 46.632C64.8619 44.7973 63.7313 42.3867 63.7313 39.4C63.7313 36.4133 64.8193 34.024 66.9953 32.232C69.1713 30.3973 72.6273 29.48 77.3633 29.48H87.0913V28.264C87.0913 25.6187 86.3233 23.592 84.7873 22.184C83.2513 20.776 80.9899 20.072 78.0033 20.072C75.9979 20.072 74.0353 20.4133 72.1153 21.096C70.1953 21.736 68.5739 22.6107 67.2513 23.72L64.6913 19.112C66.4406 17.704 68.5313 16.6373 70.9633 15.912C73.3953 15.144 75.9766 14.76 78.7073 14.76ZM77.2993 44.648C79.6459 44.648 81.6726 44.136 83.3793 43.112C85.0859 42.0453 86.3233 40.552 87.0913 38.632V33.896H77.6193C72.4139 33.896 69.8113 35.6453 69.8113 39.144C69.8113 40.8507 70.4726 42.1947 71.7953 43.176C73.1179 44.1573 74.9526 44.648 77.2993 44.648ZM155.308 15.08L142.636 49H136.748L126.956 23.272L117.036 49H111.148L98.5403 15.08H104.364L114.22 42.088L124.46 15.08H129.644L139.692 42.216L149.804 15.08H155.308ZM161.543 15.08H167.687V49H161.543V15.08ZM164.615 8.552C163.42 8.552 162.417 8.168 161.607 7.4C160.839 6.632 160.455 5.69333 160.455 4.584C160.455 3.47467 160.839 2.536 161.607 1.768C162.417 0.957331 163.42 0.551998 164.615 0.551998C165.809 0.551998 166.791 0.935998 167.559 1.704C168.369 2.42933 168.775 3.34666 168.775 4.456C168.775 5.608 168.369 6.58933 167.559 7.4C166.791 8.168 165.809 8.552 164.615 8.552ZM211.418 1.512V49H205.53V43.624C204.164 45.5013 202.436 46.9307 200.346 47.912C198.255 48.8933 195.951 49.384 193.434 49.384C190.148 49.384 187.204 48.6587 184.602 47.208C181.999 45.7573 179.951 43.7307 178.458 41.128C177.007 38.4827 176.282 35.4533 176.282 32.04C176.282 28.6267 177.007 25.6187 178.458 23.016C179.951 20.4133 181.999 18.3867 184.602 16.936C187.204 15.4853 190.148 14.76 193.434 14.76C195.866 14.76 198.106 15.2293 200.154 16.168C202.202 17.064 203.908 18.408 205.274 20.2V1.512H211.418ZM193.946 44.008C196.079 44.008 198.02 43.5173 199.77 42.536C201.519 41.512 202.884 40.104 203.866 38.312C204.847 36.4773 205.338 34.3867 205.338 32.04C205.338 29.6933 204.847 27.624 203.866 25.832C202.884 23.9973 201.519 22.5893 199.77 21.608C198.02 20.6267 196.079 20.136 193.946 20.136C191.77 20.136 189.807 20.6267 188.058 21.608C186.351 22.5893 184.986 23.9973 183.962 25.832C182.98 27.624 182.49 29.6933 182.49 32.04C182.49 34.3867 182.98 36.4773 183.962 38.312C184.986 40.104 186.351 41.512 188.058 42.536C189.807 43.5173 191.77 44.008 193.946 44.008ZM282.662 49L282.598 16.36L266.406 43.56H263.462L247.27 16.552V49H241.126V4.2H246.374L265.062 35.688L283.494 4.2H288.742L288.806 49H282.662ZM313.707 14.76C318.401 14.76 321.985 15.912 324.459 18.216C326.977 20.52 328.235 23.9547 328.235 28.52V49H322.411V44.52C321.387 46.0987 319.915 47.3147 317.995 48.168C316.118 48.9787 313.878 49.384 311.275 49.384C307.478 49.384 304.427 48.4667 302.123 46.632C299.862 44.7973 298.731 42.3867 298.731 39.4C298.731 36.4133 299.819 34.024 301.995 32.232C304.171 30.3973 307.627 29.48 312.363 29.48H322.091V28.264C322.091 25.6187 321.323 23.592 319.787 22.184C318.251 20.776 315.99 20.072 313.003 20.072C310.998 20.072 309.035 20.4133 307.115 21.096C305.195 21.736 303.574 22.6107 302.251 23.72L299.691 19.112C301.441 17.704 303.531 16.6373 305.963 15.912C308.395 15.144 310.977 14.76 313.707 14.76ZM312.299 44.648C314.646 44.648 316.673 44.136 318.379 43.112C320.086 42.0453 321.323 40.552 322.091 38.632V33.896H312.619C307.414 33.896 304.811 35.6453 304.811 39.144C304.811 40.8507 305.473 42.1947 306.795 43.176C308.118 44.1573 309.953 44.648 312.299 44.648ZM358.677 47.016C357.781 47.784 356.672 48.3813 355.349 48.808C354.027 49.192 352.661 49.384 351.253 49.384C347.84 49.384 345.195 48.4667 343.317 46.632C341.44 44.7973 340.501 42.1733 340.501 38.76V20.136H334.741V15.08H340.501V7.656H346.645V15.08H356.373V20.136H346.645V38.504C346.645 40.3387 347.093 41.7467 347.989 42.728C348.928 43.7093 350.251 44.2 351.957 44.2C353.835 44.2 355.435 43.6667 356.757 42.6L358.677 47.016ZM395.636 32.232C395.636 32.7013 395.594 33.32 395.508 34.088H367.988C368.372 37.0747 369.674 39.4853 371.892 41.32C374.154 43.112 376.948 44.008 380.276 44.008C384.33 44.008 387.594 42.6427 390.068 39.912L393.46 43.88C391.924 45.672 390.004 47.0373 387.7 47.976C385.439 48.9147 382.9 49.384 380.084 49.384C376.5 49.384 373.322 48.6587 370.548 47.208C367.775 45.7147 365.62 43.6453 364.084 41C362.591 38.3547 361.844 35.368 361.844 32.04C361.844 28.7547 362.57 25.7893 364.02 23.144C365.514 20.4987 367.54 18.4507 370.1 17C372.703 15.5067 375.626 14.76 378.868 14.76C382.111 14.76 384.991 15.5067 387.508 17C390.068 18.4507 392.052 20.4987 393.46 23.144C394.911 25.7893 395.636 28.8187 395.636 32.232ZM378.868 19.944C375.924 19.944 373.45 20.84 371.444 22.632C369.482 24.424 368.33 26.7707 367.988 29.672H389.748C389.407 26.8133 388.234 24.488 386.228 22.696C384.266 20.8613 381.812 19.944 378.868 19.944ZM418.952 49.384C415.496 49.384 412.402 48.6373 409.672 47.144C406.984 45.6507 404.872 43.6027 403.336 41C401.8 38.3547 401.032 35.368 401.032 32.04C401.032 28.712 401.8 25.7467 403.336 23.144C404.872 20.4987 406.984 18.4507 409.672 17C412.402 15.5067 415.496 14.76 418.952 14.76C422.024 14.76 424.754 15.3787 427.144 16.616C429.576 17.8533 431.453 19.6453 432.776 21.992L428.104 25C427.037 23.3787 425.714 22.1627 424.136 21.352C422.557 20.5413 420.808 20.136 418.888 20.136C416.669 20.136 414.664 20.6267 412.872 21.608C411.122 22.5893 409.736 23.9973 408.712 25.832C407.73 27.624 407.24 29.6933 407.24 32.04C407.24 34.4293 407.73 36.5413 408.712 38.376C409.736 40.168 411.122 41.5547 412.872 42.536C414.664 43.5173 416.669 44.008 418.888 44.008C420.808 44.008 422.557 43.6027 424.136 42.792C425.714 41.9813 427.037 40.7653 428.104 39.144L432.776 42.088C431.453 44.4347 429.576 46.248 427.144 47.528C424.754 48.7653 422.024 49.384 418.952 49.384ZM453.477 33.192L446.437 39.72V49H440.293V1.512H446.437V31.976L464.933 15.08H472.357L458.085 29.096L473.765 49H466.213L453.477 33.192ZM479.293 15.08H485.437V49H479.293V15.08ZM482.365 8.552C481.17 8.552 480.167 8.168 479.357 7.4C478.589 6.632 478.205 5.69333 478.205 4.584C478.205 3.47467 478.589 2.536 479.357 1.768C480.167 0.957331 481.17 0.551998 482.365 0.551998C483.559 0.551998 484.541 0.935998 485.309 1.704C486.119 2.42933 486.525 3.34666 486.525 4.456C486.525 5.608 486.119 6.58933 485.309 7.4C484.541 8.168 483.559 8.552 482.365 8.552ZM5.30094 78.576V90.288H22.1489V94.416H5.30094V108H0.500938V74.4H24.2129V78.576H5.30094ZM34.2449 86.832C35.0449 85.36 36.2289 84.24 37.7969 83.472C39.3649 82.704 41.2689 82.32 43.5089 82.32V86.784C43.2529 86.752 42.9009 86.736 42.4529 86.736C39.9569 86.736 37.9889 87.488 36.5489 88.992C35.1409 90.464 34.4369 92.576 34.4369 95.328V108H29.8289V82.56H34.2449V86.832ZM59.8499 108.288C57.3219 108.288 55.0499 107.728 53.0339 106.608C51.0179 105.488 49.4339 103.952 48.2819 102C47.1619 100.016 46.6019 97.776 46.6019 95.28C46.6019 92.784 47.1619 90.56 48.2819 88.608C49.4339 86.624 51.0179 85.088 53.0339 84C55.0499 82.88 57.3219 82.32 59.8499 82.32C62.3779 82.32 64.6339 82.88 66.6179 84C68.6339 85.088 70.2019 86.624 71.3219 88.608C72.4739 90.56 73.0499 92.784 73.0499 95.28C73.0499 97.776 72.4739 100.016 71.3219 102C70.2019 103.952 68.6339 105.488 66.6179 106.608C64.6339 107.728 62.3779 108.288 59.8499 108.288ZM59.8499 104.256C61.4819 104.256 62.9379 103.888 64.2179 103.152C65.5299 102.384 66.5539 101.328 67.2899 99.984C68.0259 98.608 68.3939 97.04 68.3939 95.28C68.3939 93.52 68.0259 91.968 67.2899 90.624C66.5539 89.248 65.5299 88.192 64.2179 87.456C62.9379 86.72 61.4819 86.352 59.8499 86.352C58.2179 86.352 56.7459 86.72 55.4339 87.456C54.1539 88.192 53.1299 89.248 52.3619 90.624C51.6259 91.968 51.2579 93.52 51.2579 95.28C51.2579 97.04 51.6259 98.608 52.3619 99.984C53.1299 101.328 54.1539 102.384 55.4339 103.152C56.7459 103.888 58.2179 104.256 59.8499 104.256ZM93.0067 82.32C96.2387 82.32 98.7987 83.264 100.687 85.152C102.607 87.008 103.567 89.744 103.567 93.36V108H98.9587V93.888C98.9587 91.424 98.3667 89.568 97.1827 88.32C95.9987 87.072 94.3027 86.448 92.0947 86.448C89.5987 86.448 87.6307 87.184 86.1907 88.656C84.7507 90.096 84.0307 92.176 84.0307 94.896V108H79.4227V82.56H83.8387V86.4C84.7667 85.088 86.0147 84.08 87.5827 83.376C89.1827 82.672 90.9907 82.32 93.0067 82.32ZM126.399 106.512C125.727 107.088 124.895 107.536 123.903 107.856C122.911 108.144 121.887 108.288 120.831 108.288C118.271 108.288 116.287 107.6 114.879 106.224C113.471 104.848 112.767 102.88 112.767 100.32V86.352H108.447V82.56H112.767V76.992H117.375V82.56H124.671V86.352H117.375V100.128C117.375 101.504 117.711 102.56 118.383 103.296C119.087 104.032 120.079 104.4 121.359 104.4C122.767 104.4 123.967 104 124.959 103.2L126.399 106.512ZM129.869 92.832H142.781V96.816H129.869V92.832ZM173.337 95.424C173.337 95.776 173.305 96.24 173.241 96.816H152.601C152.889 99.056 153.865 100.864 155.529 102.24C157.225 103.584 159.321 104.256 161.817 104.256C164.857 104.256 167.305 103.232 169.161 101.184L171.705 104.16C170.553 105.504 169.113 106.528 167.385 107.232C165.689 107.936 163.785 108.288 161.673 108.288C158.985 108.288 156.601 107.744 154.521 106.656C152.441 105.536 150.825 103.984 149.673 102C148.553 100.016 147.993 97.776 147.993 95.28C147.993 92.816 148.537 90.592 149.625 88.608C150.745 86.624 152.265 85.088 154.185 84C156.137 82.88 158.329 82.32 160.761 82.32C163.193 82.32 165.353 82.88 167.241 84C169.161 85.088 170.649 86.624 171.705 88.608C172.793 90.592 173.337 92.864 173.337 95.424ZM160.761 86.208C158.553 86.208 156.697 86.88 155.193 88.224C153.721 89.568 152.857 91.328 152.601 93.504H168.921C168.665 91.36 167.785 89.616 166.281 88.272C164.809 86.896 162.969 86.208 160.761 86.208ZM193.319 82.32C196.551 82.32 199.111 83.264 200.999 85.152C202.919 87.008 203.879 89.744 203.879 93.36V108H199.271V93.888C199.271 91.424 198.679 89.568 197.495 88.32C196.311 87.072 194.615 86.448 192.407 86.448C189.911 86.448 187.943 87.184 186.503 88.656C185.063 90.096 184.343 92.176 184.343 94.896V108H179.735V82.56H184.151V86.4C185.079 85.088 186.327 84.08 187.895 83.376C189.495 82.672 191.303 82.32 193.319 82.32ZM236.548 72.384V108H232.132V103.968C231.108 105.376 229.812 106.448 228.244 107.184C226.676 107.92 224.948 108.288 223.06 108.288C220.596 108.288 218.388 107.744 216.436 106.656C214.484 105.568 212.948 104.048 211.828 102.096C210.74 100.112 210.196 97.84 210.196 95.28C210.196 92.72 210.74 90.464 211.828 88.512C212.948 86.56 214.484 85.04 216.436 83.952C218.388 82.864 220.596 82.32 223.06 82.32C224.884 82.32 226.564 82.672 228.1 83.376C229.636 84.048 230.916 85.056 231.94 86.4V72.384H236.548ZM223.444 104.256C225.044 104.256 226.5 103.888 227.812 103.152C229.124 102.384 230.148 101.328 230.884 99.984C231.62 98.608 231.988 97.04 231.988 95.28C231.988 93.52 231.62 91.968 230.884 90.624C230.148 89.248 229.124 88.192 227.812 87.456C226.5 86.72 225.044 86.352 223.444 86.352C221.812 86.352 220.34 86.72 219.028 87.456C217.748 88.192 216.724 89.248 215.956 90.624C215.22 91.968 214.852 93.52 214.852 95.28C214.852 97.04 215.22 98.608 215.956 99.984C216.724 101.328 217.748 102.384 219.028 103.152C220.34 103.888 221.812 104.256 223.444 104.256ZM258.829 74.4H272.989C276.541 74.4 279.693 75.104 282.445 76.512C285.197 77.92 287.325 79.904 288.829 82.464C290.365 84.992 291.133 87.904 291.133 91.2C291.133 94.496 290.365 97.424 288.829 99.984C287.325 102.512 285.197 104.48 282.445 105.888C279.693 107.296 276.541 108 272.989 108H258.829V74.4ZM272.701 103.824C275.421 103.824 277.805 103.296 279.853 102.24C281.933 101.184 283.533 99.712 284.653 97.824C285.773 95.904 286.333 93.696 286.333 91.2C286.333 88.704 285.773 86.512 284.653 84.624C283.533 82.704 281.933 81.216 279.853 80.16C277.805 79.104 275.421 78.576 272.701 78.576H263.629V103.824H272.701ZM320.805 95.424C320.805 95.776 320.773 96.24 320.709 96.816H300.069C300.357 99.056 301.333 100.864 302.997 102.24C304.693 103.584 306.789 104.256 309.285 104.256C312.325 104.256 314.773 103.232 316.629 101.184L319.173 104.16C318.021 105.504 316.581 106.528 314.853 107.232C313.157 107.936 311.253 108.288 309.141 108.288C306.453 108.288 304.069 107.744 301.989 106.656C299.909 105.536 298.293 103.984 297.141 102C296.021 100.016 295.461 97.776 295.461 95.28C295.461 92.816 296.005 90.592 297.093 88.608C298.213 86.624 299.733 85.088 301.653 84C303.605 82.88 305.797 82.32 308.229 82.32C310.661 82.32 312.821 82.88 314.709 84C316.629 85.088 318.117 86.624 319.173 88.608C320.261 90.592 320.805 92.864 320.805 95.424ZM308.229 86.208C306.021 86.208 304.165 86.88 302.661 88.224C301.189 89.568 300.325 91.328 300.069 93.504H316.389C316.133 91.36 315.253 89.616 313.749 88.272C312.277 86.896 310.437 86.208 308.229 86.208ZM349.247 82.56L338.111 108H333.407L322.271 82.56H327.071L335.807 102.96L344.735 82.56H349.247ZM375.837 95.424C375.837 95.776 375.805 96.24 375.741 96.816H355.101C355.389 99.056 356.365 100.864 358.029 102.24C359.725 103.584 361.821 104.256 364.317 104.256C367.357 104.256 369.805 103.232 371.661 101.184L374.205 104.16C373.053 105.504 371.613 106.528 369.885 107.232C368.189 107.936 366.285 108.288 364.173 108.288C361.485 108.288 359.101 107.744 357.021 106.656C354.941 105.536 353.325 103.984 352.173 102C351.053 100.016 350.493 97.776 350.493 95.28C350.493 92.816 351.037 90.592 352.125 88.608C353.245 86.624 354.765 85.088 356.685 84C358.637 82.88 360.829 82.32 363.261 82.32C365.693 82.32 367.853 82.88 369.741 84C371.661 85.088 373.149 86.624 374.205 88.608C375.293 90.592 375.837 92.864 375.837 95.424ZM363.261 86.208C361.053 86.208 359.197 86.88 357.693 88.224C356.221 89.568 355.357 91.328 355.101 93.504H371.421C371.165 91.36 370.285 89.616 368.781 88.272C367.309 86.896 365.469 86.208 363.261 86.208ZM382.235 72.384H386.843V108H382.235V72.384ZM406.537 108.288C404.009 108.288 401.737 107.728 399.721 106.608C397.705 105.488 396.121 103.952 394.969 102C393.849 100.016 393.289 97.776 393.289 95.28C393.289 92.784 393.849 90.56 394.969 88.608C396.121 86.624 397.705 85.088 399.721 84C401.737 82.88 404.009 82.32 406.537 82.32C409.065 82.32 411.321 82.88 413.305 84C415.321 85.088 416.889 86.624 418.009 88.608C419.161 90.56 419.737 92.784 419.737 95.28C419.737 97.776 419.161 100.016 418.009 102C416.889 103.952 415.321 105.488 413.305 106.608C411.321 107.728 409.065 108.288 406.537 108.288ZM406.537 104.256C408.169 104.256 409.625 103.888 410.905 103.152C412.217 102.384 413.241 101.328 413.977 99.984C414.713 98.608 415.081 97.04 415.081 95.28C415.081 93.52 414.713 91.968 413.977 90.624C413.241 89.248 412.217 88.192 410.905 87.456C409.625 86.72 408.169 86.352 406.537 86.352C404.905 86.352 403.433 86.72 402.121 87.456C400.841 88.192 399.817 89.248 399.049 90.624C398.313 91.968 397.945 93.52 397.945 95.28C397.945 97.04 398.313 98.608 399.049 99.984C399.817 101.328 400.841 102.384 402.121 103.152C403.433 103.888 404.905 104.256 406.537 104.256ZM439.598 82.32C442.062 82.32 444.27 82.864 446.222 83.952C448.174 85.04 449.694 86.56 450.782 88.512C451.902 90.464 452.462 92.72 452.462 95.28C452.462 97.84 451.902 100.112 450.782 102.096C449.694 104.048 448.174 105.568 446.222 106.656C444.27 107.744 442.062 108.288 439.598 108.288C437.774 108.288 436.094 107.936 434.558 107.232C433.054 106.528 431.774 105.504 430.718 104.16V117.312H426.11V82.56H430.526V86.592C431.55 85.184 432.846 84.128 434.414 83.424C435.982 82.688 437.71 82.32 439.598 82.32ZM439.214 104.256C440.846 104.256 442.302 103.888 443.582 103.152C444.894 102.384 445.918 101.328 446.654 99.984C447.422 98.608 447.806 97.04 447.806 95.28C447.806 93.52 447.422 91.968 446.654 90.624C445.918 89.248 444.894 88.192 443.582 87.456C442.302 86.72 440.846 86.352 439.214 86.352C437.614 86.352 436.158 86.736 434.846 87.504C433.566 88.24 432.542 89.28 431.774 90.624C431.038 91.968 430.67 93.52 430.67 95.28C430.67 97.04 431.038 98.608 431.774 99.984C432.51 101.328 433.534 102.384 434.846 103.152C436.158 103.888 437.614 104.256 439.214 104.256ZM481.821 95.424C481.821 95.776 481.789 96.24 481.725 96.816H461.085C461.373 99.056 462.349 100.864 464.013 102.24C465.709 103.584 467.805 104.256 470.301 104.256C473.341 104.256 475.789 103.232 477.645 101.184L480.189 104.16C479.037 105.504 477.597 106.528 475.869 107.232C474.173 107.936 472.269 108.288 470.157 108.288C467.469 108.288 465.085 107.744 463.005 106.656C460.925 105.536 459.309 103.984 458.157 102C457.037 100.016 456.477 97.776 456.477 95.28C456.477 92.816 457.021 90.592 458.109 88.608C459.229 86.624 460.749 85.088 462.669 84C464.621 82.88 466.813 82.32 469.245 82.32C471.677 82.32 473.837 82.88 475.725 84C477.645 85.088 479.133 86.624 480.189 88.608C481.277 90.592 481.821 92.864 481.821 95.424ZM469.245 86.208C467.037 86.208 465.181 86.88 463.677 88.224C462.205 89.568 461.341 91.328 461.085 93.504H477.405C477.149 91.36 476.269 89.616 474.765 88.272C473.293 86.896 471.453 86.208 469.245 86.208ZM492.636 86.832C493.436 85.36 494.62 84.24 496.188 83.472C497.756 82.704 499.66 82.32 501.9 82.32V86.784C501.644 86.752 501.292 86.736 500.844 86.736C498.348 86.736 496.38 87.488 494.94 88.992C493.532 90.464 492.828 92.576 492.828 95.328V108H488.22V82.56H492.636V86.832Z" fill="white"/>
</svg>
